{"scene":0,"asset":{"generator":"ImageToStl.com","version":"2.0"},"scenes":[{"name":"Scene","nodes":[0]}],"nodes":[{"name":"Node0","children":[1]},{"name":"Node1","mesh":0}],"materials":[{"name":"x1","pbrMetallicRoughness":{"baseColorFactor":[0.85,0.85,0.85,1.0],"metallicFactor":0.05,"roughnessFactor":0.5},"doubleSided":true}],"meshes":[{"name":"Mesh0","primitives":[{"indices":3,"material":0,"attributes":{"POSITION":0,"NORMAL":1,"TEXCOORD_0":2}}]}],"accessors":[{"bufferView":0,"componentType":5126,"count":1078,"type":"VEC3","min":[-90.44301,-147.19174,25.717594],"max":[99.59367,170.13867,183.80597]},{"bufferView":1,"componentType":5126,"count":1078,"type":"VEC3"},{"bufferView":2,"componentType":5126,"count":1078,"type":"VEC2"},{"bufferView":3,"componentType":5123,"count":17856,"type":"SCALAR"}],"bufferViews":[{"target":34962,"buffer":0,"byteLength":12936,"byteOffset":0},{"target":34962,"buffer":0,"byteLength":12936,"byteOffset":12936},{"target":34962,"buffer":0,"byteLength":8624,"byteOffset":25872},{"target":34963,"buffer":0,"byteLength":35712,"byteOffset":34496}],"buffers":[{"byteLength":70208,"uri":"data:application/octet-stream;base64,"}]}